<!-- icon666.com - MILLIONS vector ICONS FREE --><svg viewBox="0 0 512 512" xmlns="http://www.w3.org/2000/svg"><path d="m399.53125 256c0-79.144531-64.386719-143.53125-143.53125-143.53125s-143.53125 64.386719-143.53125 143.53125v19.875c0 21.65625 7.449219 42.898438 20.980469 59.8125l28.527343 35.660156c9.515626 11.894532 14.757813 26.835938 14.757813 42.066406v51.449219c0 3.980469 1.578125 7.792969 4.394531 10.609375l32.132813 32.132813c2.8125 2.8125 6.625 4.394531 10.605469 4.394531h64.265624c3.980469 0 7.796876-1.582031 10.605469-4.394531l32.132813-32.132813c2.816406-2.816406 4.394531-6.628906 4.394531-10.609375v-51.449219c0-15.230468 5.242187-30.171874 14.757813-42.066406l28.527343-35.660156c13.53125-16.914062 20.980469-38.15625 20.980469-59.8125zm-117.609375 226h-51.84375l-23.34375-23.347656v-10.917969h98.53125v10.917969zm87.609375-206.125c0 14.871094-5.117188 29.460938-14.40625 41.074219l-28.527344 35.660156c-13.753906 17.191406-21.332031 38.789063-21.332031 60.808594v4.316406h-34.265625v-97.46875c0-8.285156-6.714844-15-15-15s-15 6.714844-15 15v97.46875h-34.265625v-4.316406c0-22.019531-7.578125-43.617188-21.332031-60.808594l-28.527344-35.660156c-9.289062-11.613281-14.40625-26.203125-14.40625-41.074219v-19.875c0-62.601562 50.929688-113.53125 113.53125-113.53125s113.53125 50.929688 113.53125 113.53125zm0 0"></path><path d="m497 241h-32.132812c-8.285157 0-15 6.714844-15 15s6.714843 15 15 15h32.132812c8.285156 0 15-6.714844 15-15s-6.714844-15-15-15zm0 0"></path><path d="m47.132812 241h-32.132812c-8.285156 0-15 6.714844-15 15s6.714844 15 15 15h32.132812c8.285157 0 15-6.714844 15-15s-6.714843-15-15-15zm0 0"></path><path d="m414.296875 393.085938c-5.855469-5.859376-15.355469-5.859376-21.210937 0-5.859376 5.855468-5.859376 15.355468 0 21.210937l22.722656 22.722656c2.925781 2.929688 6.765625 4.394531 10.605468 4.394531 3.835938 0 7.675782-1.464843 10.605469-4.394531 5.859375-5.855469 5.859375-15.355469 0-21.210937zm0 0"></path><path d="m97.703125 118.914062c2.929687 2.929688 6.765625 4.394532 10.605469 4.394532 3.835937 0 7.675781-1.464844 10.605468-4.394532 5.859376-5.855468 5.859376-15.355468 0-21.210937l-22.722656-22.722656c-5.855468-5.859375-15.351562-5.859375-21.210937 0-5.859375 5.855469-5.859375 15.355469 0 21.210937zm0 0"></path><path d="m97.703125 393.085938-22.722656 22.722656c-5.859375 5.855468-5.859375 15.351562 0 21.210937 2.929687 2.929688 6.765625 4.394531 10.605469 4.394531 3.839843 0 7.679687-1.464843 10.605468-4.394531l22.722656-22.722656c5.859376-5.855469 5.859376-15.355469 0-21.210937-5.855468-5.859376-15.355468-5.859376-21.210937 0zm0 0"></path><path d="m415.808594 74.980469-22.722656 22.722656c-5.859376 5.855469-5.859376 15.355469 0 21.210937 2.929687 2.929688 6.765624 4.394532 10.605468 4.394532 3.835938 0 7.675782-1.464844 10.605469-4.394532l22.722656-22.722656c5.859375-5.855468 5.859375-15.351562 0-21.210937s-15.355469-5.859375-21.210937 0zm0 0"></path><path d="m256 62.132812c8.285156 0 15-6.714843 15-15v-32.132812c0-8.285156-6.714844-15-15-15s-15 6.714844-15 15v32.132812c0 8.285157 6.714844 15 15 15zm0 0"></path></svg>