<!-- icon666.com - MILLIONS vector ICONS FREE --><svg id="Capa_1" enable-background="new 0 0 512 512" viewBox="0 0 512 512" xmlns="http://www.w3.org/2000/svg"><g><g id="layer16" transform="translate(-53.182 -34.393)"><g id="g6712"><path id="LINE-14" d="m363.728 34.393c-.921.014-1.84.098-2.749.25h-179.804c-30.065 0-54.759 24.729-54.759 54.795v402.053c0 30.065 24.694 54.902 54.759 54.902h255.946c30.065 0 54.759-24.836 54.759-54.902v-327.411c.515-5.967-1.925-11.808-6.533-15.635l-107.305-107.411c-3.521-4.265-8.784-6.706-14.314-6.641zm-182.553 36.839h164.455v91.312c.04 10.095 8.257 18.246 18.352 18.206h.032 91.312v310.74c0 10.311-7.895 18.348-18.205 18.348h-255.946c-10.311 0-18.205-8.038-18.205-18.348v-402.052c-.001-10.311 7.895-18.206 18.205-18.206zm201.044 25.773 47.191 47.191h-47.191zm-182.696 120.334c-10.094.223-18.096 8.587-17.873 18.681.216 9.78 8.093 17.657 17.873 17.873h91.348c10.094-.223 18.096-8.587 17.873-18.681-.216-9.78-8.093-17.657-17.873-17.873zm146.107 0c-10.094.223-18.096 8.587-17.873 18.681.216 9.78 8.093 17.657 17.873 17.873h73.143c10.094-.223 18.096-8.587 17.873-18.681-.216-9.78-8.093-17.657-17.873-17.873zm-146.107 73.107c-10.094-.224-18.458 7.777-18.683 17.871-.224 10.094 7.777 18.459 17.871 18.682.27.006.541.006.811 0h182.696c10.094.224 18.458-7.777 18.682-17.871s-7.777-18.459-17.871-18.683c-.27-.006-.541-.006-.811 0h-182.695zm18.205 73.143c-10.094-.224-18.458 7.777-18.683 17.871-.224 10.094 7.777 18.459 17.871 18.682.27.006.541.006.811 0h201.044c10.094.224 18.458-7.777 18.683-17.871.224-10.094-7.777-18.459-17.871-18.682-.27-.006-.541-.006-.811 0zm-20.097 73.107c-10.104.522-17.871 9.137-17.349 19.241s9.137 17.871 19.241 17.349h91.348c10.104 0 18.295-8.191 18.295-18.295s-8.191-18.295-18.295-18.295h-91.348c-.63-.033-1.262-.033-1.892 0zm146.25 0c-10.104.483-17.903 9.065-17.42 19.169s9.065 17.903 19.169 17.42h73.143c10.104 0 18.295-8.191 18.295-18.295s-8.191-18.295-18.295-18.295h-73.143c-.583-.027-1.167-.027-1.749.001z"></path></g></g></g></svg>